<svg width="13" height="13" viewBox="0 0 13 13" fill="none" xmlns="http://www.w3.org/2000/svg">
<path d="M4.02 10C3.95333 10 3.89667 9.97667 3.85 9.93C3.80333 9.88333 3.78 9.82667 3.78 9.76V3.25C3.78 3.17667 3.8 3.11667 3.84 3.07C3.88667 3.02333 3.94667 3 4.02 3H6.92C7.7 3 8.28333 3.17333 8.67 3.52C9.05667 3.86 9.25 4.32667 9.25 4.92C9.25 5.26667 9.16333 5.56333 8.99 5.81C8.82333 6.05 8.62667 6.22333 8.4 6.33C8.68 6.45667 8.91667 6.66333 9.11 6.95C9.30333 7.23667 9.4 7.56333 9.4 7.93C9.4 8.55 9.19 9.05 8.77 9.43C8.35 9.81 7.76333 10 7.01 10H4.02ZM6.74 5.87C7.08 5.87 7.34 5.78667 7.52 5.62C7.70667 5.45333 7.8 5.23 7.8 4.95C7.8 4.67 7.71 4.45333 7.53 4.3C7.35 4.14667 7.08667 4.07 6.74 4.07H5.19V5.87H6.74ZM6.84 8.93C7.18667 8.93 7.45667 8.83667 7.65 8.65C7.84333 8.45667 7.94 8.21333 7.94 7.92C7.94 7.62667 7.84 7.38667 7.64 7.2C7.44667 7.00667 7.18 6.91 6.84 6.91H5.19V8.93H6.84Z" fill="#008CFF"/>
<circle cx="6.5" cy="6.5" r="6" stroke="#008CFF"/>
</svg>
