<svg width="13" height="13" viewBox="0 0 13 13" fill="none" xmlns="http://www.w3.org/2000/svg">
<path d="M4.02 10C3.95333 10 3.89667 9.97667 3.85 9.93C3.80333 9.88333 3.78 9.82667 3.78 9.76V3.25C3.78 3.17667 3.8 3.11667 3.84 3.07C3.88667 3.02333 3.94667 3 4.02 3H6.61C7.43 3 8.07 3.19 8.53 3.57C8.99667 3.95 9.23 4.49 9.23 5.19C9.23 5.67667 9.11333 6.08667 8.88 6.42C8.64667 6.74667 8.32 6.98333 7.9 7.13L9.35 9.68C9.37 9.72 9.38 9.75667 9.38 9.79C9.38 9.85 9.35667 9.9 9.31 9.94C9.27 9.98 9.22333 10 9.17 10H8.25C8.14333 10 8.06 9.97667 8 9.93C7.94 9.87667 7.88667 9.81 7.84 9.73L6.56 7.36H5.19V9.76C5.19 9.82667 5.16667 9.88333 5.12 9.93C5.07333 9.97667 5.01333 10 4.94 10H4.02ZM6.58 6.22C6.98 6.22 7.28 6.13333 7.48 5.96C7.68 5.78 7.78 5.52 7.78 5.18C7.78 4.84 7.68 4.58 7.48 4.4C7.28 4.21333 6.98 4.12 6.58 4.12H5.19V6.22H6.58Z" fill="#008CFF"/>
<circle cx="6.5" cy="6.5" r="6" stroke="#008CFF"/>
</svg>
