<svg width="13" height="13" viewBox="0 0 13 13" fill="none" xmlns="http://www.w3.org/2000/svg">
<circle cx="6.5" cy="6.5" r="6" stroke="#008CFF"/>
<path d="M6.21 10.1C5.61667 10.1 5.10667 10.01 4.68 9.83C4.25333 9.65 3.93 9.41333 3.71 9.12C3.49 8.82667 3.37333 8.51 3.36 8.17C3.36 8.11 3.38 8.06 3.42 8.02C3.46 7.98 3.51 7.96 3.57 7.96H4.46C4.54 7.96 4.6 7.97667 4.64 8.01C4.68667 8.03667 4.73 8.08333 4.77 8.15C4.83667 8.37667 4.99 8.56667 5.23 8.72C5.47 8.87333 5.79667 8.95 6.21 8.95C6.68333 8.95 7.04 8.87333 7.28 8.72C7.52 8.56 7.64 8.34 7.64 8.06C7.64 7.87333 7.57667 7.72 7.45 7.6C7.33 7.48 7.14667 7.37667 6.9 7.29C6.66 7.20333 6.3 7.09667 5.82 6.97C5.03333 6.78333 4.45667 6.53667 4.09 6.23C3.73 5.91667 3.55 5.47333 3.55 4.9C3.55 4.51333 3.65333 4.17 3.86 3.87C4.07333 3.57 4.37667 3.33333 4.77 3.16C5.17 2.98667 5.63333 2.9 6.16 2.9C6.70667 2.9 7.18 2.99667 7.58 3.19C7.98 3.38333 8.28333 3.62667 8.49 3.92C8.70333 4.20667 8.81667 4.49333 8.83 4.78C8.83 4.84 8.81 4.89 8.77 4.93C8.73 4.97 8.68 4.99 8.62 4.99H7.69C7.55 4.99 7.45333 4.92667 7.4 4.8C7.36 4.58667 7.22667 4.41 7 4.27C6.77333 4.12333 6.49333 4.05 6.16 4.05C5.78667 4.05 5.49333 4.12 5.28 4.26C5.06667 4.4 4.96 4.60333 4.96 4.87C4.96 5.05667 5.01333 5.21 5.12 5.33C5.22667 5.45 5.39333 5.55667 5.62 5.65C5.85333 5.74333 6.18667 5.84667 6.62 5.96C7.20667 6.09333 7.67333 6.24333 8.02 6.41C8.37333 6.57667 8.63333 6.78667 8.8 7.04C8.96667 7.29333 9.05 7.61667 9.05 8.01C9.05 8.43667 8.93 8.81 8.69 9.13C8.45667 9.44333 8.12333 9.68333 7.69 9.85C7.26333 10.0167 6.77 10.1 6.21 10.1Z" fill="#008CFF"/>
</svg>
