<svg width="13" height="13" viewBox="0 0 13 13" fill="none" xmlns="http://www.w3.org/2000/svg">
<circle cx="6.5" cy="6.5" r="6" stroke="#008CFF"/>
<path d="M4.34797 10C4.15464 10 4.03464 9.9 3.98797 9.7L2.80797 3.29L2.79797 3.21C2.79797 3.15 2.81797 3.1 2.85797 3.06C2.89797 3.02 2.94797 3 3.00797 3H3.90797C3.99464 3 4.05797 3.01667 4.09797 3.05C4.13797 3.07667 4.16464 3.12667 4.17797 3.2L5.00797 7.7L5.89797 4.8C5.96464 4.63333 6.07464 4.55 6.22797 4.55H6.77797C6.86464 4.55 6.93464 4.57667 6.98797 4.63C7.0413 4.67667 7.07797 4.73333 7.09797 4.8L7.99797 7.7L8.81797 3.2C8.83797 3.06667 8.9313 3 9.09797 3H9.99797C10.0513 3 10.098 3.02 10.138 3.06C10.178 3.1 10.198 3.15 10.198 3.21C10.198 3.24333 10.1946 3.27 10.188 3.29L9.00797 9.7C8.99464 9.79333 8.95464 9.86667 8.88797 9.92C8.82797 9.97333 8.74797 10 8.64797 10H7.96797C7.87464 10 7.79797 9.97667 7.73797 9.93C7.67797 9.87667 7.63797 9.81667 7.61797 9.75L6.49797 6.43L5.37797 9.75C5.32464 9.91667 5.20797 10 5.02797 10H4.34797Z" fill="#008CFF"/>
</svg>
